<?xml version="1.0" standalone="no"?><!DOCTYPE svg PUBLIC "-//W3C//DTD SVG 1.1//EN" "http://www.w3.org/Graphics/SVG/1.1/DTD/svg11.dtd"><svg t="1627277544769" class="icon" viewBox="0 0 1820 1024" version="1.1" xmlns="http://www.w3.org/2000/svg" p-id="2400" data-spm-anchor-id="a313x.7781069.0.i1" xmlns:xlink="http://www.w3.org/1999/xlink" width="355.46875" height="200"><defs><style type="text/css">@font-face { font-family: feedback-iconfont; src: url("//at.alicdn.com/t/font_1031158_1uhr8ri0pk5.eot?#iefix") format("embedded-opentype"), url("//at.alicdn.com/t/font_1031158_1uhr8ri0pk5.woff2") format("woff2"), url("//at.alicdn.com/t/font_1031158_1uhr8ri0pk5.woff") format("woff"), url("//at.alicdn.com/t/font_1031158_1uhr8ri0pk5.ttf") format("truetype"), url("//at.alicdn.com/t/font_1031158_1uhr8ri0pk5.svg#iconfont") format("svg"); }
</style></defs><path d="M521.386667 644.171852c0 90.168889 48.071111 173.511111 126.198518 218.642963 78.127407 45.131852 174.364444 45.131852 252.397037 0 78.127407-45.131852 126.198519-128.474074 126.198519-218.642963s-48.071111-173.511111-126.198519-218.642963c-78.127407-45.131852-174.364444-45.131852-252.397037 0-78.127407 45.131852-126.198519 128.474074-126.198518 218.642963z m0 0" fill="#F4EFC9" p-id="2401" data-spm-anchor-id="a313x.7781069.0.i0" class="selected"></path><path d="M1191.253333 900.456296h-485.451852c-58.974815-0.094815-106.666667-47.881481-106.761481-106.761481V230.58963c0.094815-58.974815 47.881481-106.666667 106.761481-106.761482h391.68c17.92-0.18963 35.176296 6.826667 47.976297 19.437037l143.928889 143.928889c5.688889 5.594074 8.817778 13.179259 8.722963 21.143704v485.451852c-0.094815 58.785185-47.881481 106.571852-106.856297 106.666666zM705.801481 182.044444c-26.832593 0-48.545185 21.712593-48.545185 48.545186v563.105185c0 12.894815 5.12 25.220741 14.222223 34.322963 9.102222 9.102222 21.428148 14.222222 34.322962 14.222222h485.451852c12.894815 0 25.220741-5.12 34.322963-14.222222 9.102222-9.102222 14.222222-21.428148 14.222223-34.322963V320.284444l-135.964445-135.964444c-1.801481-1.517037-4.077037-2.37037-6.447407-2.37037h-391.585186z m0 0" fill="#434260" p-id="2402" data-spm-anchor-id="a313x.7781069.0.i2" class="selected"></path><path d="M907.946667 430.838519V537.6c1.517037 45.416296-23.134815 67.413333-73.860741 65.896296-36.314074-2.275556-56.035556-17.445926-59.06963-45.416296 0.758519-20.48 9.860741-31.004444 27.306667-31.762963 17.445926 0.758519 26.453333 9.102222 27.306667 25.031111-0.758519 14.411852-7.964444 21.997037-21.617778 22.755556-4.551111 0-9.481481-1.137778-14.791111-3.413334 4.551111 11.377778 15.54963 17.825185 32.90074 19.342223 21.238519-0.758519 32.142222-10.619259 32.900741-29.582223V430.838519c1.517037-13.653333-8.722963-20.100741-30.625185-19.342223v-11.377777h106.761482v11.377777c-19.721481-0.663704-28.728889 5.688889-27.211852 19.342223zM951.087407 600.082963v-77.274074h12.515556c12.136296 43.899259 33.28 66.275556 63.620741 67.034074 24.272593-0.758519 36.693333-11.757037 37.451852-32.900741 0-12.894815-15.928889-24.557037-47.691852-35.176296-43.140741-15.17037-64.758519-34.797037-64.758519-59.06963 2.275556-41.623704 25.031111-63.620741 68.171852-65.896296 14.411852 0 27.97037 3.792593 40.865185 11.377778 4.551111 2.275556 7.585185 3.413333 9.102222 3.413333 3.034074 0 6.068148-2.654815 9.102223-7.964444 0.758519-1.517037 1.517037-2.654815 2.275555-3.413334h11.377778v69.30963h-11.377778c-10.619259-38.58963-29.582222-58.311111-56.794074-59.06963-21.997037 0.758519-33.374815 10.24-34.038518 28.444445 0 13.653333 15.54963 25.41037 46.554074 35.176296 44.657778 14.411852 67.034074 35.65037 67.034074 63.620741-3.034074 39.348148-26.548148 61.345185-70.447408 65.896296-15.928889 0-31.762963-3.792593-47.691851-11.377778-5.30963-2.275556-9.102222-3.413333-11.377778-3.413333-3.792593 0-7.585185 3.413333-11.377778 10.24l-1.137778 1.137778h-11.377778z" fill="#434260" p-id="2403"></path></svg>